<svg viewBox="0 0 114 179" fill="none" xmlns="http://www.w3.org/2000/svg">
<path fill-rule="evenodd" clip-rule="evenodd" d="M113.224 20.1976V86.6519L77.2358 65.8735V25.1891H86.8247V60.3382L103.635 70.0435V20.1976C103.635 14.3385 98.8852 9.58779 93.0249 9.58779H20.1988C14.3397 9.58779 9.58896 14.3385 9.58896 20.1976V70.2924L26.2146 79.8905V37.3187C26.2146 30.6196 31.6451 25.1891 38.3442 25.1891H49.8908C56.59 25.1891 62.0204 30.6196 62.0204 37.3187V72.4471L113.224 102.01V158.309C113.224 169.133 104.71 177.968 94.0136 178.483C93.6863 178.499 93.3568 178.507 93.0249 178.507C92.6942 178.507 92.3647 178.499 92.0375 178.483H86.8247H77.2358H62.0204H52.4315H21.1863C20.859 178.499 20.5306 178.507 20.1988 178.507C19.8681 178.507 19.5386 178.499 19.2113 178.483C8.51509 177.968 0 169.133 0 158.309V91.1859L9.58896 96.7225V158.309C9.58896 163.928 13.9571 168.527 19.4832 168.894H20.9143H92.3105H93.7405C99.2666 168.527 103.635 163.928 103.635 158.309V107.545L62.0204 83.5189V117.416H74.6951C81.3942 117.416 86.8247 122.846 86.8247 129.545V141.137C86.8247 147.836 81.3942 153.267 74.6951 153.267H38.3442C31.6451 153.267 26.2146 147.836 26.2146 141.137V90.9624L0 75.8277V20.1976C0 9.04278 9.04396 0 20.1988 0H93.0249H93.1574C104.252 0.0702866 113.224 9.08656 113.224 20.1976ZM77.85 127.003H53.0457V34.778H36.4166V127.003V143.679H53.0457H77.85V127.003Z" fill="#currentColor"/>
</svg>
