<svg width="32" height="32" viewBox="0 0 32 32" fill="none" xmlns="http://www.w3.org/2000/svg">
<path fill-rule="evenodd" clip-rule="evenodd" d="M25.792 3.56414V15.2909L19.5012 11.6243V4.44496H21.1774V10.6475L24.1158 12.3601V3.56414C24.1158 2.53022 23.2856 1.69189 22.2612 1.69189H9.53084C8.50664 1.69189 7.6762 2.53022 7.6762 3.56414V12.404L10.5824 14.0978V6.58539C10.5824 5.40324 11.5317 4.44496 12.7028 4.44496H14.7212C15.8922 4.44496 16.8415 5.40324 16.8415 6.58539V12.7843L25.792 18.001V27.9357C25.792 29.8457 24.3038 31.4048 22.434 31.4957C22.3768 31.4986 22.3192 31.5 22.2612 31.5C22.2034 31.5 22.1458 31.4986 22.0886 31.4957H21.1774H19.5012H16.8415H15.1653H9.70346C9.64625 31.4986 9.58885 31.5 9.53084 31.5C9.47304 31.5 9.41543 31.4986 9.35823 31.4957C7.48848 31.4048 6 29.8457 6 27.9357V16.091L7.6762 17.068V27.9357C7.6762 28.9273 8.43976 29.7388 9.40576 29.8036H9.65592H22.1363H22.3863C23.3523 29.7388 24.1158 28.9273 24.1158 27.9357V18.9778L16.8415 14.738V20.7195H19.057C20.2281 20.7195 21.1774 21.6778 21.1774 22.86V24.9055C21.1774 26.0876 20.2281 27.0461 19.057 27.0461H12.7028C11.5317 27.0461 10.5824 26.0876 10.5824 24.9055V16.0515L6 13.3808V3.56414C6 1.59572 7.58093 0 9.53084 0H22.2612H22.2844C24.2238 0.012403 25.792 1.60345 25.792 3.56414ZM19.6085 22.4114H15.2726V6.13705H12.3658V22.4114V25.354H15.2726H19.6085V22.4114Z" fill="#CEDC00"/>
</svg>
