<?xml version="1.0" encoding="UTF-8"?>
<svg xmlns="http://www.w3.org/2000/svg" xmlns:xlink="http://www.w3.org/1999/xlink" xmlns:xodm="http://www.corel.com/coreldraw/odm/2003" xml:space="preserve" width="824px" height="200px" version="1.1" style="shape-rendering:geometricPrecision; text-rendering:geometricPrecision; image-rendering:optimizeQuality; fill-rule:evenodd; clip-rule:evenodd" viewBox="0 0 714.757 173.575">
 <defs>
  <style type="text/css">
   
    .fil0 {fill:#CEDC00}
    .fil1 {fill:#CEDC00;fill-rule:nonzero}
   
  </style>
 </defs>
 <g id="Layer_x0020_1">
  <metadata id="CorelCorpID_0Corel-Layer"></metadata>
  <path class="fil0" d="M714.757 17.529l0 57.674 -31.233 -18.033 0 -35.309 8.322 0 0 30.505 14.589 8.423 0 -43.26c0,-5.085 -4.122,-9.208 -9.208,-9.208l-63.204 0c-5.085,0 -9.208,4.123 -9.208,9.208l0 43.476 14.429 8.33 0 -36.947c0,-5.814 4.713,-10.527 10.527,-10.527l10.021 0c5.814,0 10.527,4.713 10.527,10.527l0 30.487 44.438 25.657 0 48.86c0,9.394 -7.389,17.062 -16.672,17.509 -0.284,0.014 -0.57,0.021 -0.858,0.021 -0.287,0 -0.573,-0.007 -0.857,-0.021l-4.524 0 -8.322 0 -13.205 0 -8.322 0 -27.117 0c-0.284,0.014 -0.569,0.021 -0.857,0.021 -0.287,0 -0.573,-0.007 -0.857,-0.021 -9.283,-0.447 -16.673,-8.115 -16.673,-17.509l0 -58.254 8.322 4.805 0 53.449c0,4.877 3.791,8.868 8.587,9.187l1.242 0 61.963 0 1.241 0c4.796,-0.319 8.587,-4.31 8.587,-9.187l0 -44.056 -36.116 -20.852 0 29.418 11 0c5.814,0 10.527,4.713 10.527,10.527l0 10.06c0,5.814 -4.713,10.528 -10.527,10.528l-31.548 0c-5.814,0 -10.527,-4.714 -10.527,-10.528l0 -43.545 -22.751 -13.135 0 -48.28c0,-9.681 7.849,-17.529 17.53,-17.529l63.204 0 0.115 0c9.629,0.061 17.415,7.886 17.415,17.529zm-30.7 92.694l-21.527 0 0 -80.04 -14.432 0 0 80.04 0 14.472 14.432 0 21.527 0 0 -14.472z"></path>
  <path class="fil1" d="M42.448 82.599c0,-3.224 1.155,-5.96 3.466,-8.301 2.311,-2.311 5.078,-3.467 8.27,-3.467 3.223,0 6.051,1.217 8.484,3.649 2.432,-2.432 5.26,-3.649 8.453,-3.649 3.223,0 5.96,1.156 8.301,3.467 2.311,2.341 3.466,5.077 3.466,8.301 0,3.253 -1.155,6.05 -3.435,8.331 -2.281,2.281 -5.048,3.436 -8.332,3.436 -3.253,0 -6.081,-1.216 -8.453,-3.588 -2.372,2.372 -5.199,3.588 -8.484,3.588 -3.253,0 -6.02,-1.155 -8.3,-3.436 -2.311,-2.281 -3.436,-5.078 -3.436,-8.331zm16.693 -4.896c-1.399,-1.368 -3.041,-2.068 -4.957,-2.068 -1.885,0 -3.527,0.7 -4.895,2.068 -1.368,1.368 -2.037,2.98 -2.037,4.896 0,1.885 0.669,3.557 2.037,4.925 1.368,1.399 3.01,2.099 4.895,2.099 1.916,0 3.558,-0.7 4.957,-2.099 1.398,-1.368 2.098,-3.04 2.098,-4.925 0,-1.916 -0.7,-3.528 -2.098,-4.896zm16.936 0c-1.398,-1.368 -3.04,-2.068 -4.956,-2.068 -1.885,0 -3.557,0.7 -4.956,2.068 -1.369,1.368 -2.068,2.98 -2.068,4.896 0,1.885 0.699,3.557 2.068,4.925 1.399,1.399 3.071,2.099 4.956,2.099 1.916,0 3.558,-0.7 4.956,-2.099 1.399,-1.368 2.099,-3.04 2.099,-4.925 0,-1.916 -0.7,-3.528 -2.099,-4.896zm18.974 10.369c0,-0.852 0.274,-1.521 0.852,-2.068 0.577,-0.517 1.246,-0.791 2.006,-0.791 0.76,0 1.43,0.274 2.007,0.791 0.548,0.547 0.852,1.216 0.852,2.068l0 19.156c0,0.76 -0.304,1.429 -0.852,1.976 -0.577,0.578 -1.247,0.852 -2.007,0.852l-70.543 0c-0.791,0 -1.46,-0.274 -2.007,-0.852 -0.578,-0.547 -0.851,-1.216 -0.851,-1.976l0 -33.326c0,-0.79 0.273,-1.459 0.851,-2.007 0.547,-0.577 1.216,-0.851 2.007,-0.851 0.76,0 1.429,0.274 2.007,0.851 0.547,0.548 0.821,1.217 0.821,2.007l0 30.468 64.857 0 0 -16.298zm2.159 40.775c7.115,0 12.619,-1.855 16.511,-5.564 3.892,-3.71 5.838,-9.061 5.838,-16.055l0 -30.468 -6.325 0 0 30.529c0,4.165 -1.52,7.754 -4.591,10.794 -3.071,3.041 -6.598,4.531 -10.642,4.531l-70.726 0c-4.166,0 -7.754,-1.52 -10.795,-4.622 -3.01,-3.102 -4.53,-6.75 -4.53,-10.946l0.091 -27.549 -6.325 4.652 0 23.079c0,6.994 1.946,12.345 5.838,16.055 3.893,3.709 9.396,5.564 16.511,5.564l69.145 0zm-69.145 5.717c-8.605,0 -15.446,-2.433 -20.494,-7.268 -5.047,-4.834 -7.571,-11.493 -7.571,-20.007l0 -24.386c0,-1.064 0.395,-1.916 1.155,-2.494l12.041 -8.818c0.456,-0.364 1.034,-0.547 1.673,-0.547 0.79,0 1.459,0.274 2.006,0.851 0.578,0.548 0.852,1.217 0.852,2.007l-0.182 33.144c0,2.675 1.003,4.986 2.949,6.932 1.946,1.977 4.227,2.95 6.781,2.95l70.726 0c2.493,0 4.712,-0.973 6.628,-2.889 1.946,-1.946 2.889,-4.196 2.889,-6.75l0 -33.387c0,-0.821 0.274,-1.52 0.821,-2.067 0.517,-0.517 1.246,-0.791 2.128,-0.791l11.95 0c0.821,0 1.49,0.274 2.037,0.851 0.548,0.548 0.791,1.217 0.791,2.007l0 30.468 12.649 0c0.851,0 1.52,0.274 2.068,0.851 0.517,0.548 0.79,1.216 0.79,2.007 0,0.76 -0.273,1.429 -0.79,1.976 -0.548,0.578 -1.217,0.852 -2.068,0.852l-12.74 0c-0.152,2.28 -0.578,4.561 -1.247,6.872l13.987 0c0.851,0 1.52,0.273 2.068,0.79 0.517,0.548 0.79,1.217 0.79,2.068 0,0.821 -0.273,1.49 -0.79,2.037 -0.548,0.548 -1.217,0.791 -2.068,0.791l-14.869 0c-0.517,0 -1.003,-0.122 -1.429,-0.335 -2.25,3.983 -5.473,7.024 -9.7,9.122 -4.226,2.098 -9.122,3.163 -14.686,3.163l-69.145 0zm109.829 -5.717c0.851,0 1.52,0.274 2.068,0.821 0.517,0.517 0.79,1.216 0.79,2.037 0,0.852 -0.273,1.521 -0.79,2.068 -0.548,0.517 -1.217,0.791 -2.068,0.791l-13.531 0c-0.821,0 -1.52,-0.274 -2.037,-0.791 -0.548,-0.547 -0.821,-1.216 -0.821,-2.068 0,-0.821 0.273,-1.52 0.821,-2.037 0.517,-0.547 1.216,-0.821 2.037,-0.821l13.531 0zm37.856 -86.142c-2.311,-2.311 -3.466,-5.078 -3.466,-8.27 0,-3.224 1.155,-5.96 3.466,-8.302 2.311,-2.31 5.078,-3.466 8.301,-3.466 3.193,0 5.96,1.156 8.271,3.466 2.311,2.342 3.466,5.078 3.466,8.302 0,3.192 -1.155,5.959 -3.466,8.27 -2.311,2.311 -5.078,3.497 -8.271,3.497 -3.223,0 -5.99,-1.186 -8.301,-3.497zm13.197 -13.166c-1.369,-1.368 -3.01,-2.068 -4.896,-2.068 -1.916,0 -3.557,0.7 -4.956,2.068 -1.399,1.368 -2.098,2.98 -2.098,4.896 0,1.885 0.699,3.557 2.098,4.925 1.399,1.399 3.04,2.098 4.956,2.098 1.886,0 3.527,-0.699 4.896,-2.098 1.368,-1.368 2.037,-3.04 2.037,-4.925 0,-1.916 -0.669,-3.528 -2.037,-4.896zm-12.65 105.025l-38.403 0c-0.821,0 -1.52,-0.274 -2.037,-0.791 -0.548,-0.547 -0.821,-1.216 -0.821,-2.068 0,-0.821 0.273,-1.52 0.821,-2.037 0.517,-0.547 1.216,-0.821 2.037,-0.821l38.403 0c7.481,0 13.045,-1.885 16.724,-5.686 3.71,-3.801 5.534,-9.152 5.534,-16.024l0 -37.066c0,-6.294 -1.642,-11.615 -4.926,-15.963 -3.314,-4.318 -7.723,-6.477 -13.257,-6.477 -5.2,0 -9.335,1.764 -12.375,5.321 -3.011,3.588 -4.531,8.21 -4.531,13.896l0 7.419c0,5.929 1.307,10.338 3.923,13.227 2.614,2.858 6.81,4.47 12.648,4.744 2.494,0.121 4.774,0.182 6.842,0.182l0 -6.841 -6.659 0c-2.98,0 -5.352,-1.065 -7.146,-3.132 -1.763,-2.068 -2.675,-4.653 -2.675,-7.754l0 -10.764c0,-3.041 0.881,-5.473 2.645,-7.359 1.733,-1.854 3.892,-2.797 6.446,-2.797 3.923,0 7.085,1.551 9.487,4.622 2.402,3.102 3.619,6.993 3.619,11.676l0 37.157c0,4.075 -1.551,7.662 -4.683,10.764 -3.132,3.102 -6.72,4.622 -10.825,4.622l-39.194 0c-0.821,0 -1.52,-0.243 -2.037,-0.791 -0.548,-0.547 -0.821,-1.216 -0.821,-2.037 0,-0.851 0.273,-1.52 0.821,-2.068 0.517,-0.517 1.216,-0.79 2.037,-0.79l39.194 0c2.554,0 4.835,-0.973 6.811,-2.889 2.007,-1.946 2.98,-4.196 2.98,-6.75l0 -9.153c-9.852,0 -17.18,-1.794 -21.954,-5.351 -4.774,-3.558 -7.176,-9.7 -7.176,-18.427l0 -7.571c0,-7.389 2.038,-13.379 6.082,-18 4.013,-4.653 9.517,-6.964 16.48,-6.964 7.054,0 12.832,2.767 17.302,8.301 4.5,5.504 6.75,12.163 6.75,19.947l0 37.218c0,8.635 -2.554,15.325 -7.632,20.099 -5.078,4.773 -11.889,7.176 -20.434,7.176zm-38.403 -24.508c-0.821,0 -1.52,-0.274 -2.037,-0.852 -0.548,-0.547 -0.821,-1.216 -0.821,-1.976 0,-0.791 0.273,-1.459 0.821,-2.007 0.517,-0.577 1.216,-0.851 2.037,-0.851l21.832 0c-4.348,-2.858 -7.936,-6.598 -10.825,-11.19 -2.889,-4.591 -4.318,-9.426 -4.318,-14.473l0 -13.014c0,-0.761 0.274,-1.43 0.852,-2.007 0.547,-0.548 1.246,-0.821 2.068,-0.821 0.851,0 1.52,0.273 2.006,0.821 0.517,0.577 0.76,1.277 0.76,2.098l0 12.74c0,4.227 1.308,8.362 3.923,12.376 2.615,4.044 5.99,7.297 10.156,9.76 4.165,2.463 8.362,3.71 12.558,3.71l0.729 0c0.821,0 1.49,0.274 2.038,0.851 0.547,0.548 0.79,1.216 0.79,2.007 0,0.76 -0.243,1.429 -0.79,1.976 -0.548,0.578 -1.217,0.852 -2.038,0.852l-39.741 0zm48.985 -39.985c0,-3.101 -0.669,-5.625 -2.007,-7.632 -1.338,-1.976 -3.162,-2.98 -5.473,-2.98 -1.064,0 -1.885,0.426 -2.493,1.247 -0.578,0.851 -0.882,1.946 -0.882,3.314l0 10.855c0,3.315 1.399,4.987 4.196,4.987l6.659 0 0 -9.791zm42.144 37.157c0,2.554 1.003,4.804 2.98,6.75 2.006,1.977 4.257,2.95 6.75,2.95l10.946 0c0.821,0 1.521,0.273 2.038,0.79 0.547,0.548 0.82,1.186 0.82,1.977 0,0.821 -0.304,1.52 -0.851,2.098 -0.577,0.547 -1.247,0.821 -2.007,0.821l-11.037 0c-4.045,0 -7.602,-1.52 -10.643,-4.622 -3.071,-3.102 -4.591,-6.689 -4.591,-10.764l0.091 -78.753 -6.324 4.713 0 74.04c0,6.994 1.946,12.345 5.838,16.055 3.892,3.709 9.395,5.564 16.51,5.564l10.156 0c0.76,0 1.43,0.274 2.007,0.821 0.547,0.517 0.851,1.216 0.851,2.037 0,0.852 -0.304,1.521 -0.851,2.068 -0.577,0.517 -1.247,0.791 -2.007,0.791l-10.156 0c-8.605,0 -15.446,-2.433 -20.494,-7.268 -5.047,-4.834 -7.571,-11.493 -7.571,-20.007l0 -75.439c0,-1.004 0.395,-1.824 1.155,-2.402l12.042 -8.818c0.456,-0.365 1.034,-0.548 1.672,-0.548 0.851,0 1.52,0.274 2.068,0.822 0.517,0.516 0.79,1.185 0.79,1.946l-0.182 84.378zm20.676 -2.858c0.76,0 1.43,0.274 2.007,0.851 0.547,0.548 0.851,1.216 0.851,2.007 0,0.76 -0.304,1.429 -0.851,1.976 -0.577,0.578 -1.247,0.852 -2.007,0.852l-10.855 0c-0.791,0 -1.459,-0.274 -2.007,-0.852 -0.577,-0.547 -0.851,-1.216 -0.851,-1.976l0 -84.378c0,-0.821 0.274,-1.521 0.851,-2.038 0.548,-0.547 1.216,-0.821 2.007,-0.821 0.76,0 1.429,0.274 2.007,0.821 0.547,0.517 0.821,1.217 0.821,2.038l0 81.52 8.027 0zm103.687 -1.429c0.608,0 0.973,-0.092 1.125,-0.304 0.152,-0.213 0.213,-0.639 0.213,-1.308l0 -13.257c0,-0.852 0.274,-1.521 0.851,-2.068 0.578,-0.517 1.247,-0.791 2.007,-0.791 0.76,0 1.429,0.274 2.007,0.791 0.547,0.547 0.851,1.216 0.851,2.068l0 12.983c0,4.987 -2.432,7.511 -7.328,7.511 -3.952,0 -8.574,-1.49 -13.804,-4.47 -2.068,-1.125 -3.102,-2.311 -3.102,-3.558l0 -18.456 -6.142 0 0 22.014c0,1.794 -0.152,3.162 -0.456,4.105 3.314,1.824 7.419,3.649 12.284,5.443 4.865,1.763 8.879,2.645 12.041,2.645 3.74,0 6.903,-1.094 9.487,-3.314 2.585,-2.25 3.862,-5.169 3.862,-8.788l0 -30.285c0,-0.79 0.273,-1.459 0.821,-2.007 0.517,-0.577 1.216,-0.851 2.037,-0.851l11.95 0c0.821,0 1.49,0.274 2.037,0.851 0.548,0.548 0.791,1.217 0.791,2.007l0 33.387c0,8.088 -2.95,14.625 -8.909,19.643 -5.93,5.047 -13.106,7.54 -21.559,7.54 -4.378,0 -9.091,-0.729 -14.169,-2.219 -1.277,-0.426 -1.946,-1.277 -1.946,-2.585 0,-0.791 0.243,-1.459 0.73,-2.068 0.455,-0.577 1.125,-0.881 1.946,-0.881 0.425,0 0.699,0.03 0.881,0.091 4.349,1.247 8.545,1.885 12.558,1.885 6.903,0 12.741,-1.976 17.545,-5.899 4.834,-3.922 7.237,-9.122 7.237,-15.568l0 -30.468 -6.142 0 0 27.427c0,5.291 -1.855,9.578 -5.535,12.862 -3.679,3.315 -8.24,4.957 -13.622,4.957 -3.496,0 -8.422,-1.186 -14.717,-3.558 -2.493,4.804 -6.142,8.666 -10.976,11.585 -4.865,2.889 -10.521,4.348 -16.998,4.348 -9.061,0 -17.179,-2.128 -24.294,-6.416 -0.974,-0.577 -1.43,-1.368 -1.43,-2.311 0,-0.76 0.274,-1.459 0.852,-2.098 0.547,-0.608 1.216,-0.942 2.006,-0.942 0.457,0 0.913,0.121 1.308,0.365 6.902,3.8 14.2,5.716 21.923,5.716 5.108,0 9.609,-1.125 13.471,-3.345 3.831,-2.219 6.78,-5.23 8.817,-8.97 -1.915,-0.76 -4.044,-1.733 -6.415,-2.919 -1.612,2.494 -3.923,4.531 -6.903,6.142 -3.01,1.612 -6.233,2.403 -9.669,2.403 -6.537,0 -15.112,-2.92 -25.755,-8.727 -1.672,2.797 -4.104,5.017 -7.358,6.72 -3.223,1.703 -6.872,2.554 -10.916,2.615l-17.18 0c-0.821,0 -1.52,-0.243 -2.037,-0.791 -0.547,-0.547 -0.821,-1.186 -0.821,-1.946 0,-0.851 0.304,-1.551 0.852,-2.098 0.577,-0.578 1.246,-0.851 2.006,-0.851l17.18 0c3.983,0 7.48,-1.065 10.43,-3.223 2.98,-2.129 4.469,-4.896 4.469,-8.271l0 -31.532c0,-0.79 0.244,-1.459 0.791,-2.007 0.547,-0.577 1.216,-0.851 2.037,-0.851l11.95 0c0.821,0 1.52,0.274 2.037,0.851 0.548,0.548 0.821,1.217 0.821,2.007l0 24.143c0,0.821 0.244,1.369 0.7,1.612 4.165,2.25 7.48,3.375 9.973,3.375 0.669,0 1.094,-0.122 1.307,-0.304 0.213,-0.213 0.304,-0.639 0.304,-1.308l0 -8.027c0,-0.821 0.274,-1.49 0.791,-2.037 0.547,-0.548 1.247,-0.791 2.068,-0.791 0.821,0 1.52,0.243 2.037,0.791 0.547,0.547 0.821,1.216 0.821,2.037l0 7.662c0,4.957 -2.432,7.42 -7.328,7.42 -3.923,0 -8.149,-1.278 -12.74,-3.831 -1.703,-0.974 -2.737,-1.825 -3.102,-2.585 -0.365,-0.791 -0.547,-2.129 -0.547,-4.014l0 -21.285 -6.233 0 0 28.856c0,0.821 -0.092,1.612 -0.274,2.311 5.108,2.737 9.487,4.804 13.166,6.234 3.649,1.429 7.145,2.128 10.551,2.128 3.74,0 6.902,-1.094 9.487,-3.314 2.584,-2.25 3.862,-5.169 3.862,-8.788l0 -24.933c0,-0.851 0.243,-1.52 0.76,-2.068 0.517,-0.517 1.185,-0.79 2.006,-0.79l12.042 0c0.76,0 1.429,0.273 1.976,0.851 0.578,0.547 0.851,1.216 0.851,2.007l0 19.764c3.862,2.615 7.693,3.923 11.494,3.923zm-71.699 27.244c0,1.368 -0.821,2.341 -2.402,2.858 -2.737,1.004 -6.264,1.521 -10.612,1.521l-18.974 0c-0.821,0 -1.52,-0.274 -2.037,-0.791 -0.547,-0.547 -0.821,-1.216 -0.821,-2.068 0,-0.821 0.274,-1.52 0.821,-2.037 0.517,-0.547 1.216,-0.821 2.037,-0.821l18.974 0c3.497,0 6.598,-0.456 9.274,-1.398 0.456,-0.122 0.821,-0.183 1.064,-0.183 0.761,0 1.399,0.274 1.916,0.882 0.487,0.608 0.76,1.277 0.76,2.037zm-6.781 -27.974c0,2.463 -0.668,4.378 -2.006,5.747 -1.338,1.398 -3.284,2.098 -5.838,2.098l-17.363 0c-0.821,0 -1.52,-0.274 -2.037,-0.852 -0.547,-0.547 -0.821,-1.216 -0.821,-1.976 0,-0.791 0.274,-1.459 0.821,-2.007 0.517,-0.577 1.216,-0.851 2.037,-0.851l17.454 0c1.003,0 1.611,-0.122 1.794,-0.304 0.182,-0.213 0.273,-0.821 0.273,-1.855l0 -14.139c0,-0.852 0.274,-1.521 0.821,-2.068 0.578,-0.517 1.247,-0.791 2.007,-0.791 0.791,0 1.46,0.274 2.007,0.791 0.578,0.547 0.851,1.216 0.851,2.068l0 14.139zm178.548 31.562c-0.578,0.517 -1.246,0.791 -2.007,0.791 -0.79,0 -1.459,-0.274 -2.007,-0.791 -0.577,-0.547 -0.851,-1.216 -0.851,-2.068l0 -104.751 -18.791 6.69 0 95.203 6.932 0 -0.091 -85.595c0,-0.82 0.274,-1.52 0.821,-2.037 0.517,-0.547 1.186,-0.821 1.946,-0.821 0.821,0 1.521,0.304 2.068,0.851 0.517,0.578 0.79,1.247 0.79,2.007l0.183 88.18c0,0.912 -0.274,1.642 -0.76,2.25 -0.517,0.577 -1.216,0.882 -2.098,0.882l-12.649 0c-0.821,0 -1.521,-0.274 -2.037,-0.791 -0.548,-0.547 -0.821,-1.216 -0.821,-2.068l0 -100.038c0,-1.307 0.638,-2.189 1.885,-2.675l24.386 -8.727c0.243,-0.122 0.638,-0.183 1.185,-0.183 0.761,0 1.399,0.274 1.947,0.761 0.547,0.516 0.79,1.186 0.79,2.007l0 108.855c0,0.852 -0.273,1.521 -0.821,2.068zm14.565 22.075c5.109,-2.736 9.305,-6.75 12.558,-12.102 3.284,-5.351 4.895,-10.824 4.895,-16.389l0 -65.222c0,-0.821 0.274,-1.52 0.821,-2.037 0.517,-0.548 1.186,-0.821 1.947,-0.821 0.821,0 1.52,0.273 2.098,0.821 0.547,0.517 0.851,1.216 0.851,2.037l0 65.222c0,7.115 -2.25,14.048 -6.72,20.738 -4.5,6.719 -10.004,11.341 -16.541,13.895 -0.365,0.183 -0.76,0.274 -1.247,0.274 -1.064,0 -1.855,-0.456 -2.402,-1.338l-6.233 -10.429c-0.243,-0.274 -0.365,-0.76 -0.365,-1.399 0,-1.369 0.608,-2.311 1.794,-2.767 3.983,-1.672 7.237,-4.166 9.76,-7.48 2.524,-3.345 3.771,-6.811 3.771,-10.43l0 -57.65c0,-0.761 0.273,-1.43 0.79,-2.008 0.548,-0.547 1.186,-0.82 1.977,-0.82 0.821,0 1.52,0.273 2.098,0.82 0.547,0.578 0.851,1.247 0.851,2.008l0 57.65c0,4.196 -1.307,8.332 -3.922,12.345 -2.615,3.984 -6.051,7.146 -10.247,9.487l3.466 5.595zm5.534 17.727c-0.851,0 -1.52,-0.273 -2.068,-0.851 -0.516,-0.547 -0.79,-1.247 -0.79,-2.068 0,-1.155 0.486,-1.946 1.52,-2.432 7.237,-3.193 13.349,-8.545 18.335,-16.025 4.987,-7.48 7.481,-14.99 7.481,-22.531l0 -59.597c0,-0.821 0.273,-1.52 0.821,-2.098 0.516,-0.547 1.185,-0.851 1.945,-0.851 0.821,0 1.521,0.304 2.098,0.851 0.578,0.578 0.852,1.247 0.852,2.007l0 59.779c0,8.849 -2.767,17.423 -8.301,25.694 -5.504,8.271 -12.436,14.23 -20.737,17.849 -0.365,0.182 -0.76,0.273 -1.156,0.273zm49.167 -73.493c-0.82,0 -1.52,-0.273 -2.098,-0.851 -0.577,-0.547 -0.851,-1.216 -0.851,-2.007l0 -66.803c0,-1.308 0.669,-2.19 1.976,-2.676l24.752 -8.909c0.364,-0.122 0.699,-0.183 0.973,-0.183 0.79,0 1.459,0.304 2.067,0.852 0.578,0.577 0.882,1.277 0.882,2.098l0 75.621c0,0.791 -0.274,1.46 -0.851,2.007 -0.548,0.578 -1.247,0.851 -2.098,0.851 -0.761,0 -1.43,-0.273 -2.007,-0.851 -0.548,-0.547 -0.821,-1.216 -0.821,-2.007l0 -71.516 -19.065 6.78 0 61.908 6.932 0 0 -52.208c0,-0.821 0.274,-1.52 0.852,-2.098 0.577,-0.578 1.247,-0.851 2.007,-0.851 0.76,0 1.459,0.273 2.037,0.851 0.608,0.578 0.912,1.277 0.912,2.098l0 55.036c0,0.791 -0.304,1.46 -0.851,2.007 -0.578,0.578 -1.247,0.851 -2.007,0.851l-12.741 0zm0 34.482c-0.82,0 -1.52,-0.274 -2.098,-0.852 -0.577,-0.547 -0.851,-1.216 -0.851,-2.007l0 -11.919c0,-0.791 0.274,-1.46 0.851,-2.007 0.578,-0.578 1.278,-0.851 2.098,-0.851l36.975 0c2.493,0 4.743,-1.004 6.811,-2.98 2.037,-2.007 3.071,-4.348 3.071,-7.085l0 -79.726 -6.963 4.895 0 75.196c0,0.76 -0.273,1.429 -0.821,1.976 -0.578,0.578 -1.247,0.852 -2.007,0.852l-37.157 0c-0.821,0 -1.52,-0.274 -2.037,-0.852 -0.547,-0.547 -0.821,-1.216 -0.821,-1.976 0,-0.791 0.274,-1.459 0.851,-2.007 0.578,-0.577 1.247,-0.851 2.007,-0.851l34.208 0 0 -73.858c0,-0.943 0.425,-1.733 1.247,-2.311l12.74 -8.909c0.547,-0.365 1.064,-0.547 1.612,-0.547 0.82,0 1.52,0.304 2.067,0.851 0.578,0.578 0.852,1.247 0.852,2.007l0 85.169c0,4.378 -1.551,8.118 -4.714,11.22 -3.132,3.102 -6.811,4.622 -10.946,4.622l-34.116 0 0 6.233 33.386 0c7.328,0 12.923,-1.855 16.815,-5.564 3.862,-3.71 5.808,-9.153 5.808,-16.329l0 -85.351c0,-0.76 0.304,-1.429 0.851,-2.007 0.578,-0.547 1.277,-0.851 2.098,-0.851 0.76,0 1.429,0.273 2.007,0.821 0.578,0.516 0.851,1.216 0.851,2.037l0 85.443c0,8.605 -2.554,15.355 -7.632,20.22 -5.078,4.865 -12.01,7.298 -20.798,7.298l-36.245 0z"></path>
 </g>
</svg>
